<svg width="17" height="19" viewBox="0 0 17 19" fill="none" xmlns="http://www.w3.org/2000/svg">
<g clip-path="url(#clip0_82_31)">
<path d="M10.5801 16.832C10.2767 17.5046 10.0762 18.2346 9.99939 19.0001L16.4191 17.6354C16.7225 16.9629 16.9229 16.2328 16.9998 15.4673L10.5801 16.832Z" fill="white"/>
<path d="M16.4189 13.5469C16.7223 12.8744 16.9228 12.1443 16.9996 11.3788L11.9989 12.4423V10.3978L16.4188 9.45849C16.7221 8.78598 16.9227 8.05586 16.9995 7.29035L11.9987 8.35302V1.00006C11.2325 1.4303 10.5519 2.003 9.99874 2.67853V8.77827L7.99877 9.20337V0C7.23251 0.430089 6.55199 1.00294 5.9988 1.67847V9.62832L1.52385 10.5792C1.22049 11.2517 1.01981 11.9819 0.942835 12.7474L5.9988 11.6729V14.2477L0.580344 15.3991C0.276984 16.0716 0.076457 16.8018 -0.000366211 17.5673L5.67124 16.362C6.13294 16.266 6.52975 15.993 6.78775 15.6174L7.82789 14.0753V14.075C7.93586 13.9154 7.99877 13.7231 7.99877 13.5159V11.2478L9.99874 10.8227V14.9119L16.4188 13.5466L16.4189 13.5469Z" fill="white"/>
</g>
<defs>
<clipPath id="clip0_82_31">
<rect width="17" height="19" fill="white"/>
</clipPath>
</defs>
</svg>
